<svg width="24" height="24" viewBox="0 0 24 24" fill="none" xmlns="http://www.w3.org/2000/svg">
<path fill-rule="evenodd" clip-rule="evenodd" d="M5.67188 11.0156H18.3281V6.79688H5.67188V11.0156ZM7.07812 9.60938V8.20312H16.9219V9.60938H7.07812Z" fill="#989898"/>
<path fill-rule="evenodd" clip-rule="evenodd" d="M1.38644 4.56643C1.38642 4.56632 1.3864 4.56625 0.693812 4.6875C0.322603 4.75249 0.150351 4.78264 0.0704207 4.79663C0.00121957 4.80874 0.00121957 4.80874 0.00122071 4.80875L0.00125256 4.80893L0.00211349 4.81387C0.00274904 4.81753 0.00371912 4.82312 0.00501289 4.8306C0.00760055 4.84558 0.011483 4.86816 0.0165741 4.89804C0.0267563 4.9578 0.0417718 5.04678 0.0609304 5.16267C0.0992494 5.39446 0.154132 5.73382 0.220059 6.16224C0.351936 7.01922 0.527885 8.23176 0.703835 9.65188C1.05633 12.497 1.40631 16.1555 1.40631 19.4531H2.81256C2.81256 16.071 2.45473 12.3468 2.09941 9.47897C1.92146 8.04266 1.7435 6.81622 1.60995 5.94836C1.54316 5.51435 1.48745 5.16981 1.44835 4.93331C1.4288 4.81505 1.4134 4.72379 1.40285 4.66184C1.39757 4.63087 1.3935 4.60722 1.39073 4.59119L1.38644 4.56643Z" fill="#989898"/>
<path fill-rule="evenodd" clip-rule="evenodd" d="M8.48437 19.4531V15.9375H7.07812V19.4531H8.48437Z" fill="#989898"/>
<path fill-rule="evenodd" clip-rule="evenodd" d="M1.40625 16.6406H8.48438V14.5312C8.48438 14.0528 8.38773 13.6146 8.13748 13.2548C7.88197 12.8874 7.52457 12.685 7.16523 12.5739C6.81886 12.4668 6.43996 12.4346 6.0854 12.4235C5.8444 12.416 5.57806 12.4181 5.31717 12.4201C5.19896 12.421 5.08186 12.4219 4.96875 12.4219C4.85572 12.4219 4.7385 12.421 4.61996 12.4201C4.35778 12.4181 4.08912 12.416 3.84506 12.4235C3.48619 12.4345 3.1033 12.4667 2.75312 12.5726C2.39161 12.6819 2.02831 12.8811 1.76628 13.2465C1.50785 13.607 1.40625 14.0482 1.40625 14.5312V16.6406ZM2.8125 15.2344V14.5312C2.8125 14.2377 2.87416 14.1147 2.90916 14.0659C2.94056 14.0221 3.00086 13.9668 3.16004 13.9187C3.33053 13.8671 3.56541 13.839 3.88829 13.8291C4.10536 13.8224 4.32777 13.8242 4.5736 13.8261C4.69848 13.8271 4.82941 13.8281 4.96875 13.8281C5.10857 13.8281 5.23953 13.8271 5.36409 13.8261C5.60826 13.8242 5.82787 13.8224 6.0416 13.8291C6.36001 13.839 6.58714 13.8671 6.74975 13.9174C6.89936 13.9636 6.95385 14.0158 6.98297 14.0577C7.01737 14.1071 7.07812 14.233 7.07812 14.5312V15.2344H2.8125Z" fill="#989898"/>
<path fill-rule="evenodd" clip-rule="evenodd" d="M1.38644 4.56643C1.38642 4.56632 1.3864 4.56625 0.693812 4.6875C0.322603 4.75249 0.150351 4.78264 0.0704207 4.79663C0.00121957 4.80874 0.00121957 4.80874 0.00122071 4.80875L0.00125256 4.80893L0.00211349 4.81387C0.00274904 4.81753 0.00371912 4.82312 0.00501289 4.8306C0.00760055 4.84558 0.011483 4.86816 0.0165741 4.89804C0.0267563 4.9578 0.0417718 5.04678 0.0609304 5.16267C0.0992494 5.39446 0.154132 5.73382 0.220059 6.16224C0.351936 7.01922 0.527885 8.23176 0.703835 9.65188C1.05633 12.497 1.40631 16.1555 1.40631 19.4531H2.81256C2.81256 16.071 2.45473 12.3468 2.09941 9.47897C1.92146 8.04266 1.7435 6.81622 1.60995 5.94836C1.54316 5.51435 1.48745 5.16981 1.44835 4.93331C1.4288 4.81505 1.4134 4.72379 1.40285 4.66184C1.39757 4.63087 1.3935 4.60722 1.39073 4.59119L1.38644 4.56643Z" fill="#989898"/>
<path fill-rule="evenodd" clip-rule="evenodd" d="M8.48437 19.4531V15.9375H7.07812V19.4531H8.48437Z" fill="#989898"/>
<path fill-rule="evenodd" clip-rule="evenodd" d="M23.9297 4.79664C23.8498 4.78266 23.6776 4.75251 23.3062 4.6875C22.6137 4.56625 22.6136 4.56632 22.6136 4.56643L22.6125 4.5729C22.6118 4.57707 22.6107 4.58318 22.6093 4.59119C22.6066 4.60722 22.6025 4.63087 22.5972 4.66184C22.5867 4.72379 22.5713 4.81505 22.5517 4.93331C22.5126 5.16981 22.4569 5.51435 22.3901 5.94836C22.2566 6.81622 22.0786 8.04266 21.9006 9.47897C21.5453 12.3468 21.1875 16.071 21.1875 19.4531H22.5937C22.5937 16.1555 22.9437 12.497 23.2962 9.65188C23.4722 8.23176 23.6481 7.01922 23.78 6.16224C23.8459 5.73382 23.9008 5.39446 23.9391 5.16267C23.9583 5.04678 23.9733 4.9578 23.9835 4.89804C23.9886 4.86816 23.9925 4.84558 23.995 4.8306L23.9988 4.80893L23.9988 4.80875C23.9988 4.80874 23.9988 4.80874 23.9297 4.79664Z" fill="#989898"/>
<path fill-rule="evenodd" clip-rule="evenodd" d="M16.9219 19.4531V15.9375H15.5156V19.4531H16.9219Z" fill="#989898"/>
<path fill-rule="evenodd" clip-rule="evenodd" d="M12.7031 18.75V10.3125H11.2969V18.75H12.7031Z" fill="#989898"/>
<path fill-rule="evenodd" clip-rule="evenodd" d="M14.1094 18.0469H9.89062V19.4531H14.1094V18.0469Z" fill="#989898"/>
<path fill-rule="evenodd" clip-rule="evenodd" d="M15.5156 16.6406H22.5938V14.5312C22.5938 14.0482 22.4921 13.607 22.2337 13.2465C21.9717 12.8811 21.6084 12.6819 21.2469 12.5726C20.8967 12.4667 20.5138 12.4345 20.1549 12.4235C19.9109 12.416 19.6422 12.4181 19.38 12.4201C19.2615 12.421 19.1443 12.4219 19.0312 12.4219C18.9181 12.4219 18.801 12.421 18.6828 12.4201C18.4219 12.4181 18.1556 12.416 17.9146 12.4235C17.56 12.4346 17.1811 12.4668 16.8348 12.5739C16.4754 12.685 16.118 12.8874 15.8625 13.2548C15.6123 13.6146 15.5156 14.0528 15.5156 14.5312V16.6406ZM16.9219 15.2344V14.5312C16.9219 14.233 16.9826 14.1071 17.017 14.0577C17.0462 14.0158 17.1006 13.9636 17.2503 13.9174C17.4129 13.8671 17.64 13.839 17.9584 13.8291C18.1721 13.8224 18.3917 13.8242 18.6359 13.8261C18.7605 13.8271 18.8914 13.8281 19.0312 13.8281C19.1706 13.8281 19.3015 13.8271 19.4264 13.8261C19.6722 13.8242 19.8946 13.8224 20.1117 13.8291C20.4346 13.839 20.6695 13.8671 20.84 13.9187C20.9991 13.9668 21.0594 14.0221 21.0908 14.0659C21.1258 14.1147 21.1875 14.2377 21.1875 14.5312V15.2344H16.9219Z" fill="#989898"/>
</svg>
