<svg width="18" height="18" viewBox="0 0 18 18" fill="none" xmlns="http://www.w3.org/2000/svg">
<path d="M8.95818 18C6.73911 17.9955 4.59945 17.1762 2.94785 15.6986C1.29625 14.2209 0.248449 12.1885 0.00456393 9.98938C-0.0175572 9.7879 0.0413292 9.58589 0.168319 9.42763C0.29531 9.26936 0.480047 9.16774 0.68205 9.14503C0.711428 9.14216 0.738506 9.14101 0.765005 9.14101C0.954676 9.13837 1.13843 9.20681 1.2799 9.33281C1.42137 9.4588 1.51024 9.63316 1.52891 9.82137C1.73184 11.6461 2.60134 13.3325 3.97155 14.5589C5.34177 15.7853 7.11683 16.466 8.95818 16.471C9.239 16.4709 9.51961 16.4552 9.7987 16.4242C11.2715 16.2619 12.663 15.6679 13.7971 14.7171C14.9313 13.7663 15.7572 12.5016 16.1704 11.0828C16.5835 9.66398 16.5654 8.1549 16.1183 6.74638C15.6712 5.33786 14.8152 4.09317 13.6585 3.16973C12.3388 2.10485 10.6917 1.52547 8.99391 1.52901C8.7127 1.529 8.43171 1.54462 8.15224 1.57582C6.86568 1.71239 5.63705 2.18104 4.58759 2.93553C3.53813 3.69002 2.7041 4.70428 2.1678 5.87823C2.10601 6.01073 2.00762 6.12293 1.88416 6.20167C1.7607 6.28041 1.61728 6.32243 1.47072 6.3228C1.34207 6.32273 1.2155 6.29038 1.10267 6.22875C0.989844 6.16712 0.894377 6.07818 0.825063 5.97011C0.755749 5.86205 0.714814 5.73834 0.706027 5.61036C0.69724 5.48239 0.720883 5.35427 0.77478 5.2378C1.42068 3.82374 2.42522 2.60203 3.68927 1.69322C4.95332 0.78441 6.43319 0.219912 7.98285 0.0554289C8.31803 0.0186575 8.65497 0.000153656 8.99217 0C11.2113 0.00433201 13.3511 0.823572 15.0029 2.30124C16.6546 3.77891 17.7025 5.81145 17.9464 8.01063C18.2066 10.3822 17.5128 12.7599 16.0172 14.6222C14.5215 16.4845 12.3461 17.6793 9.96807 17.9446C9.6327 17.9813 9.29557 17.9998 8.95818 18Z" fill="#989898"/>
<path d="M1.46609 6.32367C1.28171 6.32385 1.10346 6.25769 0.964075 6.13735C0.824694 6.01701 0.733546 5.85056 0.707377 5.66859L0.252838 2.54768C0.238237 2.44831 0.243444 2.34703 0.268159 2.24967C0.292875 2.1523 0.336614 2.06075 0.396871 1.98027C0.457128 1.89978 0.53272 1.83193 0.619315 1.78062C0.705911 1.72931 0.80181 1.69553 0.901519 1.68122C0.937589 1.67613 0.97397 1.67354 1.0104 1.67347C1.19506 1.67238 1.37385 1.73811 1.51359 1.85847C1.65333 1.97884 1.74453 2.14566 1.77026 2.32798L2.10267 4.60684L4.15299 4.08185C4.34981 4.03193 4.55846 4.06188 4.73317 4.16512C4.90788 4.26837 5.03439 4.43648 5.08496 4.6326C5.13552 4.82871 5.10602 5.03681 5.00291 5.21126C4.8998 5.38572 4.7315 5.51228 4.53494 5.56319L1.65677 6.29983C1.59446 6.31567 1.5304 6.32368 1.46609 6.32367Z" fill="#989898"/>
<path d="M11.9244 12.1172C11.7505 12.1168 11.5818 12.0578 11.4457 11.9497L8.49608 9.59706C8.40612 9.52559 8.33353 9.43475 8.28375 9.33136C8.23398 9.22796 8.20829 9.11468 8.20862 8.99999V4.29465C8.20862 4.09189 8.28941 3.89744 8.43321 3.75407C8.577 3.6107 8.77204 3.53015 8.9754 3.53015C9.17876 3.53015 9.37379 3.6107 9.51759 3.75407C9.66139 3.89744 9.74217 4.09189 9.74217 4.29465V8.63268L12.4043 10.7556C12.5285 10.8546 12.6187 10.9896 12.6625 11.142C12.7063 11.2944 12.7015 11.4566 12.6488 11.6061C12.5961 11.7557 12.4981 11.8852 12.3683 11.9767C12.2385 12.0683 12.0834 12.1174 11.9244 12.1172Z" fill="#989898"/>
</svg>
