<svg width="20" height="18" viewBox="0 0 20 18" fill="none" xmlns="http://www.w3.org/2000/svg">
<path fill-rule="evenodd" clip-rule="evenodd" d="M8.43749 1.56352C8.00602 1.56352 7.65624 1.21351 7.65624 0.78176C7.65624 0.350006 8.00602 0 8.43749 0H11.5625C11.994 0 12.3437 0.350006 12.3437 0.78176C12.3437 1.21351 11.994 1.56352 11.5625 1.56352H10.7724C10.7782 1.60208 10.7812 1.64156 10.7812 1.68176V3.00032C16.026 3.40037 20 7.79986 20 13.1335C20 14.4288 18.9507 15.4788 17.6562 15.4788H2.34375C1.0493 15.4788 0 14.4288 0 13.1335C0 7.79986 3.97403 3.40037 9.21875 3.00032V1.68176C9.21875 1.64156 9.22178 1.60208 9.22763 1.56352H8.43749ZM2.34375 13.9153C1.91227 13.9153 1.5625 13.5653 1.5625 13.1335C1.5625 8.367 5.27084 4.5342 10 4.5342C14.7292 4.5342 18.4375 8.367 18.4375 13.1335C18.4375 13.5653 18.0877 13.9153 17.6562 13.9153H2.34375ZM3.90837 12.3269C4.32612 12.4349 4.75229 12.1836 4.86025 11.7656C5.16417 10.5888 5.85199 9.56185 6.78369 8.82908C7.12292 8.56228 7.18178 8.07081 6.91515 7.73136C6.64852 7.39191 6.15737 7.33301 5.81814 7.59981C4.6243 8.53876 3.7393 9.85709 3.34744 11.3744C3.23949 11.7925 3.49062 12.2189 3.90837 12.3269ZM0.90909 17.19C0.90909 17.6373 1.22707 18 1.61932 18H18.3807C18.7729 18 19.0909 17.6373 19.0909 17.19C19.0909 16.7426 18.7729 16.38 18.3807 16.38H1.61932C1.22707 16.38 0.90909 16.7426 0.90909 17.19Z" fill="#16284B"/>
</svg>
